<?xml version="1.0" encoding="iso-8859-1"?>
<!DOCTYPE svg PUBLIC "-//W3C//DTD SVG 1.0//EN" "http://www.w3.org/TR/2001/REC-SVG-20010904/DTD/svg10.dtd">
<svg width="1086" height="622" xmlns="http://www.w3.org/2000/svg" xmlns:xlink="http://www.w3.org/1999/xlink">
<g style="stroke:black;fill:lightgreen" transform="translate(30,30)">
<line x1="191" y1="466" x2="191" y2="476" style="stroke:blue; stroke-width:1"/>
<line x1="191" y1="476" x2="552" y2="476" style="stroke:blue; stroke-width:1"/>
<line x1="191" y1="466" x2="191" y2="456" style="stroke:blue; stroke-width:1"/>
<line x1="191" y1="456" x2="555" y2="456" style="stroke:blue; stroke-width:1"/>
<line x1="322" y1="386" x2="322" y2="396" style="stroke:blue; stroke-width:1"/>
<line x1="322" y1="396" x2="582" y2="396" style="stroke:blue; stroke-width:1"/>
<line x1="322" y1="386" x2="322" y2="376" style="stroke:blue; stroke-width:1"/>
<line x1="322" y1="376" x2="643" y2="376" style="stroke:blue; stroke-width:1"/>
<line x1="252" y1="401" x2="252" y2="416" style="stroke:blue; stroke-width:1"/>
<line x1="252" y1="416" x2="560" y2="416" style="stroke:blue; stroke-width:1"/>
<line x1="239" y1="418" x2="239" y2="436" style="stroke:blue; stroke-width:1"/>
<line x1="239" y1="436" x2="564" y2="436" style="stroke:blue; stroke-width:1"/>
<line x1="125" y1="469" x2="125" y2="496" style="stroke:blue; stroke-width:1"/>
<line x1="125" y1="496" x2="529" y2="496" style="stroke:blue; stroke-width:1"/>
<line x1="89" y1="493" x2="89" y2="516" style="stroke:blue; stroke-width:1"/>
<line x1="89" y1="516" x2="490" y2="516" style="stroke:blue; stroke-width:1"/>
<line x1="64" y1="546" x2="64" y2="556" style="stroke:blue; stroke-width:1"/>
<line x1="64" y1="556" x2="482" y2="556" style="stroke:blue; stroke-width:1"/>
<line x1="64" y1="546" x2="64" y2="536" style="stroke:blue; stroke-width:1"/>
<line x1="64" y1="536" x2="477" y2="536" style="stroke:blue; stroke-width:1"/>
<line x1="16" y1="519" x2="16" y2="576" style="stroke:blue; stroke-width:1"/>
<line x1="16" y1="576" x2="457" y2="576" style="stroke:blue; stroke-width:1"/>
<line x1="57" y1="307" x2="57" y2="356" style="stroke:blue; stroke-width:1"/>
<line x1="57" y1="356" x2="521" y2="356" style="stroke:blue; stroke-width:1"/>
<line x1="316" y1="286" x2="316" y2="296" style="stroke:blue; stroke-width:1"/>
<line x1="316" y1="296" x2="884" y2="296" style="stroke:blue; stroke-width:1"/>
<line x1="316" y1="286" x2="316" y2="276" style="stroke:blue; stroke-width:1"/>
<line x1="316" y1="276" x2="920" y2="276" style="stroke:blue; stroke-width:1"/>
<line x1="270" y1="301" x2="270" y2="316" style="stroke:blue; stroke-width:1"/>
<line x1="270" y1="316" x2="823" y2="316" style="stroke:blue; stroke-width:1"/>
<line x1="306" y1="226" x2="306" y2="236" style="stroke:blue; stroke-width:1"/>
<line x1="306" y1="236" x2="879" y2="236" style="stroke:blue; stroke-width:1"/>
<line x1="306" y1="226" x2="306" y2="216" style="stroke:blue; stroke-width:1"/>
<line x1="306" y1="216" x2="800" y2="216" style="stroke:blue; stroke-width:1"/>
<line x1="231" y1="241" x2="231" y2="256" style="stroke:blue; stroke-width:1"/>
<line x1="231" y1="256" x2="914" y2="256" style="stroke:blue; stroke-width:1"/>
<line x1="258" y1="166" x2="258" y2="176" style="stroke:blue; stroke-width:1"/>
<line x1="258" y1="176" x2="644" y2="176" style="stroke:blue; stroke-width:1"/>
<line x1="258" y1="166" x2="258" y2="156" style="stroke:blue; stroke-width:1"/>
<line x1="258" y1="156" x2="688" y2="156" style="stroke:blue; stroke-width:1"/>
<line x1="209" y1="181" x2="209" y2="196" style="stroke:blue; stroke-width:1"/>
<line x1="209" y1="196" x2="709" y2="196" style="stroke:blue; stroke-width:1"/>
<line x1="189" y1="86" x2="189" y2="96" style="stroke:blue; stroke-width:1"/>
<line x1="189" y1="96" x2="699" y2="96" style="stroke:blue; stroke-width:1"/>
<line x1="189" y1="86" x2="189" y2="76" style="stroke:blue; stroke-width:1"/>
<line x1="189" y1="76" x2="720" y2="76" style="stroke:blue; stroke-width:1"/>
<line x1="189" y1="101" x2="189" y2="116" style="stroke:blue; stroke-width:1"/>
<line x1="189" y1="116" x2="803" y2="116" style="stroke:blue; stroke-width:1"/>
<line x1="224" y1="26" x2="224" y2="36" style="stroke:blue; stroke-width:1"/>
<line x1="224" y1="36" x2="830" y2="36" style="stroke:blue; stroke-width:1"/>
<line x1="224" y1="26" x2="224" y2="16" style="stroke:blue; stroke-width:1"/>
<line x1="224" y1="16" x2="716" y2="16" style="stroke:blue; stroke-width:1"/>
<line x1="144" y1="41" x2="144" y2="56" style="stroke:blue; stroke-width:1"/>
<line x1="144" y1="56" x2="662" y2="56" style="stroke:blue; stroke-width:1"/>
<line x1="122" y1="103" x2="122" y2="136" style="stroke:blue; stroke-width:1"/>
<line x1="122" y1="136" x2="651" y2="136" style="stroke:blue; stroke-width:1"/>
<line x1="105" y1="258" x2="105" y2="336" style="stroke:blue; stroke-width:1"/>
<line x1="105" y1="336" x2="653" y2="336" style="stroke:blue; stroke-width:1"/>
<line x1="187" y1="442" x2="187" y2="466" style="stroke:blue; stroke-width:1"/>
<line x1="187" y1="466" x2="191" y2="466" style="stroke:blue; stroke-width:1"/>
<line x1="252" y1="401" x2="252" y2="386" style="stroke:blue; stroke-width:1"/>
<line x1="252" y1="386" x2="322" y2="386" style="stroke:blue; stroke-width:1"/>
<line x1="239" y1="418" x2="239" y2="401" style="stroke:blue; stroke-width:1"/>
<line x1="239" y1="401" x2="252" y2="401" style="stroke:blue; stroke-width:1"/>
<line x1="187" y1="442" x2="187" y2="418" style="stroke:blue; stroke-width:1"/>
<line x1="187" y1="418" x2="239" y2="418" style="stroke:blue; stroke-width:1"/>
<line x1="125" y1="469" x2="125" y2="442" style="stroke:blue; stroke-width:1"/>
<line x1="125" y1="442" x2="187" y2="442" style="stroke:blue; stroke-width:1"/>
<line x1="89" y1="493" x2="89" y2="469" style="stroke:blue; stroke-width:1"/>
<line x1="89" y1="469" x2="125" y2="469" style="stroke:blue; stroke-width:1"/>
<line x1="52" y1="519" x2="52" y2="493" style="stroke:blue; stroke-width:1"/>
<line x1="52" y1="493" x2="89" y2="493" style="stroke:blue; stroke-width:1"/>
<line x1="52" y1="519" x2="52" y2="546" style="stroke:blue; stroke-width:1"/>
<line x1="52" y1="546" x2="64" y2="546" style="stroke:blue; stroke-width:1"/>
<line x1="16" y1="519" x2="16" y2="519" style="stroke:blue; stroke-width:1"/>
<line x1="16" y1="519" x2="52" y2="519" style="stroke:blue; stroke-width:1"/>
<line x1="16" y1="519" x2="16" y2="307" style="stroke:blue; stroke-width:1"/>
<line x1="16" y1="307" x2="57" y2="307" style="stroke:blue; stroke-width:1"/>
<line x1="270" y1="301" x2="270" y2="286" style="stroke:blue; stroke-width:1"/>
<line x1="270" y1="286" x2="316" y2="286" style="stroke:blue; stroke-width:1"/>
<line x1="187" y1="256" x2="187" y2="301" style="stroke:blue; stroke-width:1"/>
<line x1="187" y1="301" x2="270" y2="301" style="stroke:blue; stroke-width:1"/>
<line x1="231" y1="241" x2="231" y2="226" style="stroke:blue; stroke-width:1"/>
<line x1="231" y1="226" x2="306" y2="226" style="stroke:blue; stroke-width:1"/>
<line x1="187" y1="211" x2="187" y2="241" style="stroke:blue; stroke-width:1"/>
<line x1="187" y1="241" x2="231" y2="241" style="stroke:blue; stroke-width:1"/>
<line x1="209" y1="181" x2="209" y2="166" style="stroke:blue; stroke-width:1"/>
<line x1="209" y1="166" x2="258" y2="166" style="stroke:blue; stroke-width:1"/>
<line x1="187" y1="211" x2="187" y2="181" style="stroke:blue; stroke-width:1"/>
<line x1="187" y1="181" x2="209" y2="181" style="stroke:blue; stroke-width:1"/>
<line x1="187" y1="256" x2="187" y2="211" style="stroke:blue; stroke-width:1"/>
<line x1="187" y1="211" x2="187" y2="211" style="stroke:blue; stroke-width:1"/>
<line x1="119" y1="180" x2="119" y2="256" style="stroke:blue; stroke-width:1"/>
<line x1="119" y1="256" x2="187" y2="256" style="stroke:blue; stroke-width:1"/>
<line x1="189" y1="101" x2="189" y2="86" style="stroke:blue; stroke-width:1"/>
<line x1="189" y1="86" x2="189" y2="86" style="stroke:blue; stroke-width:1"/>
<line x1="134" y1="71" x2="134" y2="101" style="stroke:blue; stroke-width:1"/>
<line x1="134" y1="101" x2="189" y2="101" style="stroke:blue; stroke-width:1"/>
<line x1="144" y1="41" x2="144" y2="26" style="stroke:blue; stroke-width:1"/>
<line x1="144" y1="26" x2="224" y2="26" style="stroke:blue; stroke-width:1"/>
<line x1="134" y1="71" x2="134" y2="41" style="stroke:blue; stroke-width:1"/>
<line x1="134" y1="41" x2="144" y2="41" style="stroke:blue; stroke-width:1"/>
<line x1="122" y1="103" x2="122" y2="71" style="stroke:blue; stroke-width:1"/>
<line x1="122" y1="71" x2="134" y2="71" style="stroke:blue; stroke-width:1"/>
<line x1="119" y1="180" x2="119" y2="103" style="stroke:blue; stroke-width:1"/>
<line x1="119" y1="103" x2="122" y2="103" style="stroke:blue; stroke-width:1"/>
<line x1="105" y1="258" x2="105" y2="180" style="stroke:blue; stroke-width:1"/>
<line x1="105" y1="180" x2="119" y2="180" style="stroke:blue; stroke-width:1"/>
<line x1="57" y1="307" x2="57" y2="258" style="stroke:blue; stroke-width:1"/>
<line x1="57" y1="258" x2="105" y2="258" style="stroke:blue; stroke-width:1"/>
<text x="461" y="581" font-weight = "10" font-family="verdana" fill="black" font-size="16">orf6</text>
<text x="486" y="561" font-weight = "10" font-family="verdana" fill="black" font-size="16">orf4</text>
<text x="481" y="541" font-weight = "10" font-family="verdana" fill="black" font-size="16">orf5</text>
<text x="494" y="521" font-weight = "10" font-family="verdana" fill="black" font-size="16">orf14</text>
<text x="533" y="501" font-weight = "10" font-family="verdana" fill="black" font-size="16">orf10</text>
<text x="556" y="481" font-weight = "10" font-family="verdana" fill="black" font-size="16">orf1</text>
<text x="559" y="461" font-weight = "10" font-family="verdana" fill="black" font-size="16">orf22</text>
<text x="568" y="441" font-weight = "10" font-family="verdana" fill="black" font-size="16">orf8</text>
<text x="564" y="421" font-weight = "10" font-family="verdana" fill="black" font-size="16">orf9</text>
<text x="586" y="401" font-weight = "10" font-family="verdana" fill="black" font-size="16">orf2</text>
<text x="647" y="381" font-weight = "10" font-family="verdana" fill="black" font-size="16">orf26</text>
<text x="525" y="361" font-weight = "10" font-family="verdana" fill="black" font-size="16">orf7</text>
<text x="657" y="341" font-weight = "10" font-family="verdana" fill="black" font-size="16">orf18</text>
<text x="827" y="321" font-weight = "10" font-family="verdana" fill="black" font-size="16">orf21</text>
<text x="888" y="301" font-weight = "10" font-family="verdana" fill="black" font-size="16">orf15</text>
<text x="924" y="281" font-weight = "10" font-family="verdana" fill="black" font-size="16">orf25</text>
<text x="918" y="261" font-weight = "10" font-family="verdana" fill="black" font-size="16">orf23</text>
<text x="883" y="241" font-weight = "10" font-family="verdana" fill="black" font-size="16">orf13</text>
<text x="804" y="221" font-weight = "10" font-family="verdana" fill="black" font-size="16">orf28</text>
<text x="713" y="201" font-weight = "10" font-family="verdana" fill="black" font-size="16">orf24</text>
<text x="648" y="181" font-weight = "10" font-family="verdana" fill="black" font-size="16">orf11</text>
<text x="692" y="161" font-weight = "10" font-family="verdana" fill="black" font-size="16">orf12</text>
<text x="655" y="141" font-weight = "10" font-family="verdana" fill="black" font-size="16">orf27</text>
<text x="807" y="121" font-weight = "10" font-family="verdana" fill="black" font-size="16">orf3</text>
<text x="703" y="101" font-weight = "10" font-family="verdana" fill="black" font-size="16">orf17</text>
<text x="724" y="81" font-weight = "10" font-family="verdana" fill="black" font-size="16">orf20</text>
<text x="666" y="61" font-weight = "10" font-family="verdana" fill="black" font-size="16">orf16</text>
<text x="834" y="41" font-weight = "10" font-family="verdana" fill="black" font-size="16">orf19</text>
<text x="720" y="21" font-weight = "10" font-family="verdana" fill="black" font-size="16">orf29</text>
</g></svg>