<?xml version="1.0" encoding="iso-8859-1"?>
<!DOCTYPE svg PUBLIC "-//W3C//DTD SVG 1.0//EN" "http://www.w3.org/TR/2001/REC-SVG-20010904/DTD/svg10.dtd">
<svg width="648" height="921" xmlns="http://www.w3.org/2000/svg" xmlns:xlink="http://www.w3.org/1999/xlink">
<g style="stroke:black;fill:lightgreen" transform="translate(30,30)">
<line x1="117" y1="711" x2="117" y2="723" style="stroke:blue; stroke-width:1"/>
<line x1="117" y1="723" x2="277" y2="723" style="stroke:blue; stroke-width:1"/>
<line x1="117" y1="711" x2="117" y2="698" style="stroke:blue; stroke-width:1"/>
<line x1="117" y1="698" x2="275" y2="698" style="stroke:blue; stroke-width:1"/>
<line x1="176" y1="584" x2="176" y2="597" style="stroke:blue; stroke-width:1"/>
<line x1="176" y1="597" x2="288" y2="597" style="stroke:blue; stroke-width:1"/>
<line x1="176" y1="584" x2="176" y2="572" style="stroke:blue; stroke-width:1"/>
<line x1="176" y1="572" x2="316" y2="572" style="stroke:blue; stroke-width:1"/>
<line x1="145" y1="603" x2="145" y2="622" style="stroke:blue; stroke-width:1"/>
<line x1="145" y1="622" x2="280" y2="622" style="stroke:blue; stroke-width:1"/>
<line x1="340" y1="660" x2="340" y2="673" style="stroke:blue; stroke-width:1"/>
<line x1="340" y1="673" x2="340" y2="673" style="stroke:blue; stroke-width:1"/>
<line x1="340" y1="660" x2="340" y2="648" style="stroke:blue; stroke-width:1"/>
<line x1="340" y1="648" x2="340" y2="648" style="stroke:blue; stroke-width:1"/>
<line x1="87" y1="710" x2="87" y2="749" style="stroke:blue; stroke-width:1"/>
<line x1="87" y1="749" x2="263" y2="749" style="stroke:blue; stroke-width:1"/>
<line x1="75" y1="742" x2="75" y2="774" style="stroke:blue; stroke-width:1"/>
<line x1="75" y1="774" x2="246" y2="774" style="stroke:blue; stroke-width:1"/>
<line x1="59" y1="812" x2="59" y2="824" style="stroke:blue; stroke-width:1"/>
<line x1="59" y1="824" x2="242" y2="824" style="stroke:blue; stroke-width:1"/>
<line x1="59" y1="812" x2="59" y2="799" style="stroke:blue; stroke-width:1"/>
<line x1="59" y1="799" x2="239" y2="799" style="stroke:blue; stroke-width:1"/>
<line x1="39" y1="813" x2="39" y2="850" style="stroke:blue; stroke-width:1"/>
<line x1="39" y1="850" x2="235" y2="850" style="stroke:blue; stroke-width:1"/>
<line x1="16" y1="813" x2="16" y2="875" style="stroke:blue; stroke-width:1"/>
<line x1="16" y1="875" x2="223" y2="875" style="stroke:blue; stroke-width:1"/>
<line x1="314" y1="509" x2="314" y2="521" style="stroke:blue; stroke-width:1"/>
<line x1="314" y1="521" x2="314" y2="521" style="stroke:blue; stroke-width:1"/>
<line x1="314" y1="509" x2="314" y2="496" style="stroke:blue; stroke-width:1"/>
<line x1="314" y1="496" x2="314" y2="496" style="stroke:blue; stroke-width:1"/>
<line x1="356" y1="458" x2="356" y2="471" style="stroke:blue; stroke-width:1"/>
<line x1="356" y1="471" x2="356" y2="471" style="stroke:blue; stroke-width:1"/>
<line x1="356" y1="458" x2="356" y2="445" style="stroke:blue; stroke-width:1"/>
<line x1="356" y1="445" x2="356" y2="445" style="stroke:blue; stroke-width:1"/>
<line x1="58" y1="515" x2="58" y2="547" style="stroke:blue; stroke-width:1"/>
<line x1="58" y1="547" x2="257" y2="547" style="stroke:blue; stroke-width:1"/>
<line x1="130" y1="382" x2="130" y2="395" style="stroke:blue; stroke-width:1"/>
<line x1="130" y1="395" x2="379" y2="395" style="stroke:blue; stroke-width:1"/>
<line x1="130" y1="382" x2="130" y2="370" style="stroke:blue; stroke-width:1"/>
<line x1="130" y1="370" x2="346" y2="370" style="stroke:blue; stroke-width:1"/>
<line x1="94" y1="401" x2="94" y2="420" style="stroke:blue; stroke-width:1"/>
<line x1="94" y1="420" x2="385" y2="420" style="stroke:blue; stroke-width:1"/>
<line x1="482" y1="281" x2="482" y2="294" style="stroke:blue; stroke-width:1"/>
<line x1="482" y1="294" x2="482" y2="294" style="stroke:blue; stroke-width:1"/>
<line x1="482" y1="281" x2="482" y2="269" style="stroke:blue; stroke-width:1"/>
<line x1="482" y1="269" x2="482" y2="269" style="stroke:blue; stroke-width:1"/>
<line x1="127" y1="300" x2="127" y2="319" style="stroke:blue; stroke-width:1"/>
<line x1="127" y1="319" x2="387" y2="319" style="stroke:blue; stroke-width:1"/>
<line x1="106" y1="322" x2="106" y2="344" style="stroke:blue; stroke-width:1"/>
<line x1="106" y1="344" x2="352" y2="344" style="stroke:blue; stroke-width:1"/>
<line x1="93" y1="155" x2="93" y2="168" style="stroke:blue; stroke-width:1"/>
<line x1="93" y1="168" x2="314" y2="168" style="stroke:blue; stroke-width:1"/>
<line x1="93" y1="155" x2="93" y2="142" style="stroke:blue; stroke-width:1"/>
<line x1="93" y1="142" x2="325" y2="142" style="stroke:blue; stroke-width:1"/>
<line x1="91" y1="174" x2="91" y2="193" style="stroke:blue; stroke-width:1"/>
<line x1="91" y1="193" x2="352" y2="193" style="stroke:blue; stroke-width:1"/>
<line x1="370" y1="104" x2="370" y2="117" style="stroke:blue; stroke-width:1"/>
<line x1="370" y1="117" x2="370" y2="117" style="stroke:blue; stroke-width:1"/>
<line x1="370" y1="104" x2="370" y2="92" style="stroke:blue; stroke-width:1"/>
<line x1="370" y1="92" x2="370" y2="92" style="stroke:blue; stroke-width:1"/>
<line x1="392" y1="29" x2="392" y2="41" style="stroke:blue; stroke-width:1"/>
<line x1="392" y1="41" x2="392" y2="41" style="stroke:blue; stroke-width:1"/>
<line x1="392" y1="29" x2="392" y2="16" style="stroke:blue; stroke-width:1"/>
<line x1="392" y1="16" x2="392" y2="16" style="stroke:blue; stroke-width:1"/>
<line x1="92" y1="48" x2="92" y2="67" style="stroke:blue; stroke-width:1"/>
<line x1="92" y1="67" x2="365" y2="67" style="stroke:blue; stroke-width:1"/>
<line x1="50" y1="172" x2="50" y2="218" style="stroke:blue; stroke-width:1"/>
<line x1="50" y1="218" x2="282" y2="218" style="stroke:blue; stroke-width:1"/>
<line x1="49" y1="207" x2="49" y2="243" style="stroke:blue; stroke-width:1"/>
<line x1="49" y1="243" x2="291" y2="243" style="stroke:blue; stroke-width:1"/>
<line x1="107" y1="671" x2="107" y2="711" style="stroke:blue; stroke-width:1"/>
<line x1="107" y1="711" x2="117" y2="711" style="stroke:blue; stroke-width:1"/>
<line x1="145" y1="603" x2="145" y2="584" style="stroke:blue; stroke-width:1"/>
<line x1="145" y1="584" x2="176" y2="584" style="stroke:blue; stroke-width:1"/>
<line x1="143" y1="632" x2="143" y2="603" style="stroke:blue; stroke-width:1"/>
<line x1="143" y1="603" x2="145" y2="603" style="stroke:blue; stroke-width:1"/>
<line x1="143" y1="632" x2="143" y2="660" style="stroke:blue; stroke-width:1"/>
<line x1="143" y1="660" x2="340" y2="660" style="stroke:blue; stroke-width:1"/>
<line x1="107" y1="671" x2="107" y2="632" style="stroke:blue; stroke-width:1"/>
<line x1="107" y1="632" x2="143" y2="632" style="stroke:blue; stroke-width:1"/>
<line x1="87" y1="710" x2="87" y2="671" style="stroke:blue; stroke-width:1"/>
<line x1="87" y1="671" x2="107" y2="671" style="stroke:blue; stroke-width:1"/>
<line x1="75" y1="742" x2="75" y2="710" style="stroke:blue; stroke-width:1"/>
<line x1="75" y1="710" x2="87" y2="710" style="stroke:blue; stroke-width:1"/>
<line x1="51" y1="777" x2="51" y2="742" style="stroke:blue; stroke-width:1"/>
<line x1="51" y1="742" x2="75" y2="742" style="stroke:blue; stroke-width:1"/>
<line x1="51" y1="777" x2="51" y2="812" style="stroke:blue; stroke-width:1"/>
<line x1="51" y1="812" x2="59" y2="812" style="stroke:blue; stroke-width:1"/>
<line x1="39" y1="813" x2="39" y2="777" style="stroke:blue; stroke-width:1"/>
<line x1="39" y1="777" x2="51" y2="777" style="stroke:blue; stroke-width:1"/>
<line x1="16" y1="813" x2="16" y2="813" style="stroke:blue; stroke-width:1"/>
<line x1="16" y1="813" x2="39" y2="813" style="stroke:blue; stroke-width:1"/>
<line x1="76" y1="483" x2="76" y2="509" style="stroke:blue; stroke-width:1"/>
<line x1="76" y1="509" x2="314" y2="509" style="stroke:blue; stroke-width:1"/>
<line x1="76" y1="483" x2="76" y2="458" style="stroke:blue; stroke-width:1"/>
<line x1="76" y1="458" x2="356" y2="458" style="stroke:blue; stroke-width:1"/>
<line x1="58" y1="515" x2="58" y2="483" style="stroke:blue; stroke-width:1"/>
<line x1="58" y1="483" x2="76" y2="483" style="stroke:blue; stroke-width:1"/>
<line x1="23" y1="400" x2="23" y2="515" style="stroke:blue; stroke-width:1"/>
<line x1="23" y1="515" x2="58" y2="515" style="stroke:blue; stroke-width:1"/>
<line x1="94" y1="401" x2="94" y2="382" style="stroke:blue; stroke-width:1"/>
<line x1="94" y1="382" x2="130" y2="382" style="stroke:blue; stroke-width:1"/>
<line x1="88" y1="362" x2="88" y2="401" style="stroke:blue; stroke-width:1"/>
<line x1="88" y1="401" x2="94" y2="401" style="stroke:blue; stroke-width:1"/>
<line x1="127" y1="300" x2="127" y2="281" style="stroke:blue; stroke-width:1"/>
<line x1="127" y1="281" x2="482" y2="281" style="stroke:blue; stroke-width:1"/>
<line x1="106" y1="322" x2="106" y2="300" style="stroke:blue; stroke-width:1"/>
<line x1="106" y1="300" x2="127" y2="300" style="stroke:blue; stroke-width:1"/>
<line x1="88" y1="362" x2="88" y2="322" style="stroke:blue; stroke-width:1"/>
<line x1="88" y1="322" x2="106" y2="322" style="stroke:blue; stroke-width:1"/>
<line x1="49" y1="285" x2="49" y2="362" style="stroke:blue; stroke-width:1"/>
<line x1="49" y1="362" x2="88" y2="362" style="stroke:blue; stroke-width:1"/>
<line x1="91" y1="174" x2="91" y2="155" style="stroke:blue; stroke-width:1"/>
<line x1="91" y1="155" x2="93" y2="155" style="stroke:blue; stroke-width:1"/>
<line x1="52" y1="125" x2="52" y2="174" style="stroke:blue; stroke-width:1"/>
<line x1="52" y1="174" x2="91" y2="174" style="stroke:blue; stroke-width:1"/>
<line x1="55" y1="76" x2="55" y2="104" style="stroke:blue; stroke-width:1"/>
<line x1="55" y1="104" x2="370" y2="104" style="stroke:blue; stroke-width:1"/>
<line x1="92" y1="48" x2="92" y2="29" style="stroke:blue; stroke-width:1"/>
<line x1="92" y1="29" x2="392" y2="29" style="stroke:blue; stroke-width:1"/>
<line x1="55" y1="76" x2="55" y2="48" style="stroke:blue; stroke-width:1"/>
<line x1="55" y1="48" x2="92" y2="48" style="stroke:blue; stroke-width:1"/>
<line x1="52" y1="125" x2="52" y2="76" style="stroke:blue; stroke-width:1"/>
<line x1="52" y1="76" x2="55" y2="76" style="stroke:blue; stroke-width:1"/>
<line x1="50" y1="172" x2="50" y2="125" style="stroke:blue; stroke-width:1"/>
<line x1="50" y1="125" x2="52" y2="125" style="stroke:blue; stroke-width:1"/>
<line x1="49" y1="207" x2="49" y2="172" style="stroke:blue; stroke-width:1"/>
<line x1="49" y1="172" x2="50" y2="172" style="stroke:blue; stroke-width:1"/>
<line x1="49" y1="285" x2="49" y2="207" style="stroke:blue; stroke-width:1"/>
<line x1="49" y1="207" x2="49" y2="207" style="stroke:blue; stroke-width:1"/>
<line x1="23" y1="400" x2="23" y2="285" style="stroke:blue; stroke-width:1"/>
<line x1="23" y1="285" x2="49" y2="285" style="stroke:blue; stroke-width:1"/>
<line x1="16" y1="813" x2="16" y2="400" style="stroke:blue; stroke-width:1"/>
<line x1="16" y1="400" x2="23" y2="400" style="stroke:blue; stroke-width:1"/>
<text x="227" y="880" font-weight = "10" font-family="verdana" fill="black" font-size="16">plazmide7</text>
<text x="239" y="855" font-weight = "10" font-family="verdana" fill="black" font-size="16">plazmide6</text>
<text x="246" y="829" font-weight = "10" font-family="verdana" fill="black" font-size="16">plazmide4</text>
<text x="243" y="804" font-weight = "10" font-family="verdana" fill="black" font-size="16">plazmide5</text>
<text x="250" y="779" font-weight = "10" font-family="verdana" fill="black" font-size="16">plazmide14</text>
<text x="267" y="754" font-weight = "10" font-family="verdana" fill="black" font-size="16">plazmide10</text>
<text x="281" y="728" font-weight = "10" font-family="verdana" fill="black" font-size="16">plazmide1</text>
<text x="279" y="703" font-weight = "10" font-family="verdana" fill="black" font-size="16">plazmide22</text>
<text x="344" y="678" font-weight = "10" font-family="verdana" fill="black" font-size="16">plazmide8</text>
<text x="344" y="653" font-weight = "10" font-family="verdana" fill="black" font-size="16">test30</text>
<text x="284" y="627" font-weight = "10" font-family="verdana" fill="black" font-size="16">plazmide9</text>
<text x="292" y="602" font-weight = "10" font-family="verdana" fill="black" font-size="16">plazmide2</text>
<text x="320" y="577" font-weight = "10" font-family="verdana" fill="black" font-size="16">plazmide26</text>
<text x="261" y="552" font-weight = "10" font-family="verdana" fill="black" font-size="16">plazmide12</text>
<text x="318" y="526" font-weight = "10" font-family="verdana" fill="black" font-size="16">plazmide11</text>
<text x="318" y="501" font-weight = "10" font-family="verdana" fill="black" font-size="16">test31</text>
<text x="360" y="476" font-weight = "10" font-family="verdana" fill="black" font-size="16">plazmide24</text>
<text x="360" y="450" font-weight = "10" font-family="verdana" fill="black" font-size="16">test33</text>
<text x="389" y="425" font-weight = "10" font-family="verdana" fill="black" font-size="16">plazmide23</text>
<text x="383" y="400" font-weight = "10" font-family="verdana" fill="black" font-size="16">plazmide13</text>
<text x="350" y="375" font-weight = "10" font-family="verdana" fill="black" font-size="16">plazmide28</text>
<text x="356" y="349" font-weight = "10" font-family="verdana" fill="black" font-size="16">plazmide21</text>
<text x="391" y="324" font-weight = "10" font-family="verdana" fill="black" font-size="16">plazmide15</text>
<text x="486" y="299" font-weight = "10" font-family="verdana" fill="black" font-size="16">plazmide25</text>
<text x="486" y="274" font-weight = "10" font-family="verdana" fill="black" font-size="16">test34</text>
<text x="295" y="248" font-weight = "10" font-family="verdana" fill="black" font-size="16">plazmide18</text>
<text x="286" y="223" font-weight = "10" font-family="verdana" fill="black" font-size="16">plazmide27</text>
<text x="356" y="198" font-weight = "10" font-family="verdana" fill="black" font-size="16">plazmide3</text>
<text x="318" y="173" font-weight = "10" font-family="verdana" fill="black" font-size="16">plazmide17</text>
<text x="329" y="147" font-weight = "10" font-family="verdana" fill="black" font-size="16">plazmide20</text>
<text x="374" y="122" font-weight = "10" font-family="verdana" fill="black" font-size="16">plazmide16</text>
<text x="374" y="97" font-weight = "10" font-family="verdana" fill="black" font-size="16">test32</text>
<text x="369" y="72" font-weight = "10" font-family="verdana" fill="black" font-size="16">plazmide19</text>
<text x="396" y="46" font-weight = "10" font-family="verdana" fill="black" font-size="16">plazmide29</text>
<text x="396" y="21" font-weight = "10" font-family="verdana" fill="black" font-size="16">test35</text>
</g></svg>