<?xml version="1.0" encoding="iso-8859-1"?>
<!DOCTYPE svg PUBLIC "-//W3C//DTD SVG 1.0//EN" "http://www.w3.org/TR/2001/REC-SVG-20010904/DTD/svg10.dtd">
<svg width="648" height="921" xmlns="http://www.w3.org/2000/svg" xmlns:xlink="http://www.w3.org/1999/xlink">
<g style="stroke:black;fill:lightgreen" transform="translate(30,30)">
<line x1="204" y1="610" x2="204" y2="622" style="stroke:blue; stroke-width:1"/>
<line x1="204" y1="622" x2="281" y2="622" style="stroke:blue; stroke-width:1"/>
<line x1="204" y1="610" x2="204" y2="597" style="stroke:blue; stroke-width:1"/>
<line x1="204" y1="597" x2="287" y2="597" style="stroke:blue; stroke-width:1"/>
<line x1="317" y1="559" x2="317" y2="572" style="stroke:blue; stroke-width:1"/>
<line x1="317" y1="572" x2="317" y2="572" style="stroke:blue; stroke-width:1"/>
<line x1="317" y1="559" x2="317" y2="547" style="stroke:blue; stroke-width:1"/>
<line x1="317" y1="547" x2="317" y2="547" style="stroke:blue; stroke-width:1"/>
<line x1="141" y1="616" x2="141" y2="648" style="stroke:blue; stroke-width:1"/>
<line x1="141" y1="648" x2="235" y2="648" style="stroke:blue; stroke-width:1"/>
<line x1="128" y1="644" x2="128" y2="673" style="stroke:blue; stroke-width:1"/>
<line x1="128" y1="673" x2="230" y2="673" style="stroke:blue; stroke-width:1"/>
<line x1="94" y1="671" x2="94" y2="698" style="stroke:blue; stroke-width:1"/>
<line x1="94" y1="698" x2="209" y2="698" style="stroke:blue; stroke-width:1"/>
<line x1="64" y1="697" x2="64" y2="723" style="stroke:blue; stroke-width:1"/>
<line x1="64" y1="723" x2="199" y2="723" style="stroke:blue; stroke-width:1"/>
<line x1="256" y1="761" x2="256" y2="774" style="stroke:blue; stroke-width:1"/>
<line x1="256" y1="774" x2="256" y2="774" style="stroke:blue; stroke-width:1"/>
<line x1="256" y1="761" x2="256" y2="749" style="stroke:blue; stroke-width:1"/>
<line x1="256" y1="749" x2="256" y2="749" style="stroke:blue; stroke-width:1"/>
<line x1="42" y1="764" x2="42" y2="799" style="stroke:blue; stroke-width:1"/>
<line x1="42" y1="799" x2="180" y2="799" style="stroke:blue; stroke-width:1"/>
<line x1="28" y1="794" x2="28" y2="824" style="stroke:blue; stroke-width:1"/>
<line x1="28" y1="824" x2="173" y2="824" style="stroke:blue; stroke-width:1"/>
<line x1="241" y1="862" x2="241" y2="875" style="stroke:blue; stroke-width:1"/>
<line x1="241" y1="875" x2="241" y2="875" style="stroke:blue; stroke-width:1"/>
<line x1="241" y1="862" x2="241" y2="850" style="stroke:blue; stroke-width:1"/>
<line x1="241" y1="850" x2="241" y2="850" style="stroke:blue; stroke-width:1"/>
<line x1="46" y1="509" x2="46" y2="521" style="stroke:blue; stroke-width:1"/>
<line x1="46" y1="521" x2="215" y2="521" style="stroke:blue; stroke-width:1"/>
<line x1="46" y1="509" x2="46" y2="496" style="stroke:blue; stroke-width:1"/>
<line x1="46" y1="496" x2="215" y2="496" style="stroke:blue; stroke-width:1"/>
<line x1="57" y1="458" x2="57" y2="471" style="stroke:blue; stroke-width:1"/>
<line x1="57" y1="471" x2="228" y2="471" style="stroke:blue; stroke-width:1"/>
<line x1="57" y1="458" x2="57" y2="445" style="stroke:blue; stroke-width:1"/>
<line x1="57" y1="445" x2="232" y2="445" style="stroke:blue; stroke-width:1"/>
<line x1="391" y1="332" x2="391" y2="344" style="stroke:blue; stroke-width:1"/>
<line x1="391" y1="344" x2="391" y2="344" style="stroke:blue; stroke-width:1"/>
<line x1="391" y1="332" x2="391" y2="319" style="stroke:blue; stroke-width:1"/>
<line x1="391" y1="319" x2="391" y2="319" style="stroke:blue; stroke-width:1"/>
<line x1="100" y1="351" x2="100" y2="370" style="stroke:blue; stroke-width:1"/>
<line x1="100" y1="370" x2="315" y2="370" style="stroke:blue; stroke-width:1"/>
<line x1="152" y1="281" x2="152" y2="294" style="stroke:blue; stroke-width:1"/>
<line x1="152" y1="294" x2="406" y2="294" style="stroke:blue; stroke-width:1"/>
<line x1="152" y1="281" x2="152" y2="269" style="stroke:blue; stroke-width:1"/>
<line x1="152" y1="269" x2="346" y2="269" style="stroke:blue; stroke-width:1"/>
<line x1="159" y1="155" x2="159" y2="168" style="stroke:blue; stroke-width:1"/>
<line x1="159" y1="168" x2="422" y2="168" style="stroke:blue; stroke-width:1"/>
<line x1="159" y1="155" x2="159" y2="142" style="stroke:blue; stroke-width:1"/>
<line x1="159" y1="142" x2="373" y2="142" style="stroke:blue; stroke-width:1"/>
<line x1="147" y1="174" x2="147" y2="193" style="stroke:blue; stroke-width:1"/>
<line x1="147" y1="193" x2="364" y2="193" style="stroke:blue; stroke-width:1"/>
<line x1="148" y1="231" x2="148" y2="243" style="stroke:blue; stroke-width:1"/>
<line x1="148" y1="243" x2="405" y2="243" style="stroke:blue; stroke-width:1"/>
<line x1="148" y1="231" x2="148" y2="218" style="stroke:blue; stroke-width:1"/>
<line x1="148" y1="218" x2="364" y2="218" style="stroke:blue; stroke-width:1"/>
<line x1="416" y1="79" x2="416" y2="92" style="stroke:blue; stroke-width:1"/>
<line x1="416" y1="92" x2="416" y2="92" style="stroke:blue; stroke-width:1"/>
<line x1="416" y1="79" x2="416" y2="67" style="stroke:blue; stroke-width:1"/>
<line x1="416" y1="67" x2="416" y2="67" style="stroke:blue; stroke-width:1"/>
<line x1="482" y1="29" x2="482" y2="41" style="stroke:blue; stroke-width:1"/>
<line x1="482" y1="41" x2="482" y2="41" style="stroke:blue; stroke-width:1"/>
<line x1="482" y1="29" x2="482" y2="16" style="stroke:blue; stroke-width:1"/>
<line x1="482" y1="16" x2="482" y2="16" style="stroke:blue; stroke-width:1"/>
<line x1="120" y1="85" x2="120" y2="117" style="stroke:blue; stroke-width:1"/>
<line x1="120" y1="117" x2="328" y2="117" style="stroke:blue; stroke-width:1"/>
<line x1="100" y1="338" x2="100" y2="395" style="stroke:blue; stroke-width:1"/>
<line x1="100" y1="395" x2="318" y2="395" style="stroke:blue; stroke-width:1"/>
<line x1="79" y1="379" x2="79" y2="420" style="stroke:blue; stroke-width:1"/>
<line x1="79" y1="420" x2="265" y2="420" style="stroke:blue; stroke-width:1"/>
<line x1="197" y1="584" x2="197" y2="610" style="stroke:blue; stroke-width:1"/>
<line x1="197" y1="610" x2="204" y2="610" style="stroke:blue; stroke-width:1"/>
<line x1="197" y1="584" x2="197" y2="559" style="stroke:blue; stroke-width:1"/>
<line x1="197" y1="559" x2="317" y2="559" style="stroke:blue; stroke-width:1"/>
<line x1="141" y1="616" x2="141" y2="584" style="stroke:blue; stroke-width:1"/>
<line x1="141" y1="584" x2="197" y2="584" style="stroke:blue; stroke-width:1"/>
<line x1="128" y1="644" x2="128" y2="616" style="stroke:blue; stroke-width:1"/>
<line x1="128" y1="616" x2="141" y2="616" style="stroke:blue; stroke-width:1"/>
<line x1="94" y1="671" x2="94" y2="644" style="stroke:blue; stroke-width:1"/>
<line x1="94" y1="644" x2="128" y2="644" style="stroke:blue; stroke-width:1"/>
<line x1="64" y1="697" x2="64" y2="671" style="stroke:blue; stroke-width:1"/>
<line x1="64" y1="671" x2="94" y2="671" style="stroke:blue; stroke-width:1"/>
<line x1="64" y1="729" x2="64" y2="697" style="stroke:blue; stroke-width:1"/>
<line x1="64" y1="697" x2="64" y2="697" style="stroke:blue; stroke-width:1"/>
<line x1="64" y1="729" x2="64" y2="761" style="stroke:blue; stroke-width:1"/>
<line x1="64" y1="761" x2="256" y2="761" style="stroke:blue; stroke-width:1"/>
<line x1="42" y1="764" x2="42" y2="729" style="stroke:blue; stroke-width:1"/>
<line x1="42" y1="729" x2="64" y2="729" style="stroke:blue; stroke-width:1"/>
<line x1="28" y1="794" x2="28" y2="764" style="stroke:blue; stroke-width:1"/>
<line x1="28" y1="764" x2="42" y2="764" style="stroke:blue; stroke-width:1"/>
<line x1="16" y1="794" x2="16" y2="794" style="stroke:blue; stroke-width:1"/>
<line x1="16" y1="794" x2="28" y2="794" style="stroke:blue; stroke-width:1"/>
<line x1="16" y1="794" x2="16" y2="862" style="stroke:blue; stroke-width:1"/>
<line x1="16" y1="862" x2="241" y2="862" style="stroke:blue; stroke-width:1"/>
<line x1="46" y1="464" x2="46" y2="509" style="stroke:blue; stroke-width:1"/>
<line x1="46" y1="509" x2="46" y2="509" style="stroke:blue; stroke-width:1"/>
<line x1="57" y1="419" x2="57" y2="458" style="stroke:blue; stroke-width:1"/>
<line x1="57" y1="458" x2="57" y2="458" style="stroke:blue; stroke-width:1"/>
<line x1="100" y1="351" x2="100" y2="332" style="stroke:blue; stroke-width:1"/>
<line x1="100" y1="332" x2="391" y2="332" style="stroke:blue; stroke-width:1"/>
<line x1="100" y1="282" x2="100" y2="351" style="stroke:blue; stroke-width:1"/>
<line x1="100" y1="351" x2="100" y2="351" style="stroke:blue; stroke-width:1"/>
<line x1="120" y1="213" x2="120" y2="281" style="stroke:blue; stroke-width:1"/>
<line x1="120" y1="281" x2="152" y2="281" style="stroke:blue; stroke-width:1"/>
<line x1="147" y1="174" x2="147" y2="155" style="stroke:blue; stroke-width:1"/>
<line x1="147" y1="155" x2="159" y2="155" style="stroke:blue; stroke-width:1"/>
<line x1="140" y1="202" x2="140" y2="174" style="stroke:blue; stroke-width:1"/>
<line x1="140" y1="174" x2="147" y2="174" style="stroke:blue; stroke-width:1"/>
<line x1="140" y1="202" x2="140" y2="231" style="stroke:blue; stroke-width:1"/>
<line x1="140" y1="231" x2="148" y2="231" style="stroke:blue; stroke-width:1"/>
<line x1="120" y1="144" x2="120" y2="202" style="stroke:blue; stroke-width:1"/>
<line x1="120" y1="202" x2="140" y2="202" style="stroke:blue; stroke-width:1"/>
<line x1="120" y1="54" x2="120" y2="79" style="stroke:blue; stroke-width:1"/>
<line x1="120" y1="79" x2="416" y2="79" style="stroke:blue; stroke-width:1"/>
<line x1="120" y1="54" x2="120" y2="29" style="stroke:blue; stroke-width:1"/>
<line x1="120" y1="29" x2="482" y2="29" style="stroke:blue; stroke-width:1"/>
<line x1="120" y1="85" x2="120" y2="54" style="stroke:blue; stroke-width:1"/>
<line x1="120" y1="54" x2="120" y2="54" style="stroke:blue; stroke-width:1"/>
<line x1="120" y1="144" x2="120" y2="85" style="stroke:blue; stroke-width:1"/>
<line x1="120" y1="85" x2="120" y2="85" style="stroke:blue; stroke-width:1"/>
<line x1="120" y1="213" x2="120" y2="144" style="stroke:blue; stroke-width:1"/>
<line x1="120" y1="144" x2="120" y2="144" style="stroke:blue; stroke-width:1"/>
<line x1="100" y1="282" x2="100" y2="213" style="stroke:blue; stroke-width:1"/>
<line x1="100" y1="213" x2="120" y2="213" style="stroke:blue; stroke-width:1"/>
<line x1="100" y1="338" x2="100" y2="282" style="stroke:blue; stroke-width:1"/>
<line x1="100" y1="282" x2="100" y2="282" style="stroke:blue; stroke-width:1"/>
<line x1="79" y1="379" x2="79" y2="338" style="stroke:blue; stroke-width:1"/>
<line x1="79" y1="338" x2="100" y2="338" style="stroke:blue; stroke-width:1"/>
<line x1="57" y1="419" x2="57" y2="379" style="stroke:blue; stroke-width:1"/>
<line x1="57" y1="379" x2="79" y2="379" style="stroke:blue; stroke-width:1"/>
<line x1="46" y1="464" x2="46" y2="419" style="stroke:blue; stroke-width:1"/>
<line x1="46" y1="419" x2="57" y2="419" style="stroke:blue; stroke-width:1"/>
<line x1="16" y1="794" x2="16" y2="464" style="stroke:blue; stroke-width:1"/>
<line x1="16" y1="464" x2="46" y2="464" style="stroke:blue; stroke-width:1"/>
<text x="245" y="880" font-weight = "10" font-family="verdana" fill="black" font-size="16">plazmide16</text>
<text x="245" y="855" font-weight = "10" font-family="verdana" fill="black" font-size="16">test32</text>
<text x="177" y="829" font-weight = "10" font-family="verdana" fill="black" font-size="16">plazmide10</text>
<text x="184" y="804" font-weight = "10" font-family="verdana" fill="black" font-size="16">plazmide14</text>
<text x="260" y="779" font-weight = "10" font-family="verdana" fill="black" font-size="16">plazmide11</text>
<text x="260" y="754" font-weight = "10" font-family="verdana" fill="black" font-size="16">test31</text>
<text x="203" y="728" font-weight = "10" font-family="verdana" fill="black" font-size="16">plazmide5</text>
<text x="213" y="703" font-weight = "10" font-family="verdana" fill="black" font-size="16">plazmide1</text>
<text x="234" y="678" font-weight = "10" font-family="verdana" fill="black" font-size="16">plazmide2</text>
<text x="239" y="653" font-weight = "10" font-family="verdana" fill="black" font-size="16">plazmide22</text>
<text x="285" y="627" font-weight = "10" font-family="verdana" fill="black" font-size="16">plazmide9</text>
<text x="291" y="602" font-weight = "10" font-family="verdana" fill="black" font-size="16">plazmide26</text>
<text x="321" y="577" font-weight = "10" font-family="verdana" fill="black" font-size="16">plazmide8</text>
<text x="321" y="552" font-weight = "10" font-family="verdana" fill="black" font-size="16">test30</text>
<text x="219" y="526" font-weight = "10" font-family="verdana" fill="black" font-size="16">plazmide6</text>
<text x="219" y="501" font-weight = "10" font-family="verdana" fill="black" font-size="16">plazmide12</text>
<text x="232" y="476" font-weight = "10" font-family="verdana" fill="black" font-size="16">plazmide4</text>
<text x="236" y="450" font-weight = "10" font-family="verdana" fill="black" font-size="16">plazmide7</text>
<text x="269" y="425" font-weight = "10" font-family="verdana" fill="black" font-size="16">plazmide28</text>
<text x="322" y="400" font-weight = "10" font-family="verdana" fill="black" font-size="16">plazmide18</text>
<text x="319" y="375" font-weight = "10" font-family="verdana" fill="black" font-size="16">plazmide3</text>
<text x="395" y="349" font-weight = "10" font-family="verdana" fill="black" font-size="16">plazmide24</text>
<text x="395" y="324" font-weight = "10" font-family="verdana" fill="black" font-size="16">test33</text>
<text x="410" y="299" font-weight = "10" font-family="verdana" fill="black" font-size="16">plazmide13</text>
<text x="350" y="274" font-weight = "10" font-family="verdana" fill="black" font-size="16">plazmide23</text>
<text x="409" y="248" font-weight = "10" font-family="verdana" fill="black" font-size="16">plazmide19</text>
<text x="368" y="223" font-weight = "10" font-family="verdana" fill="black" font-size="16">plazmide20</text>
<text x="368" y="198" font-weight = "10" font-family="verdana" fill="black" font-size="16">plazmide21</text>
<text x="426" y="173" font-weight = "10" font-family="verdana" fill="black" font-size="16">plazmide15</text>
<text x="377" y="147" font-weight = "10" font-family="verdana" fill="black" font-size="16">plazmide27</text>
<text x="332" y="122" font-weight = "10" font-family="verdana" fill="black" font-size="16">plazmide17</text>
<text x="420" y="97" font-weight = "10" font-family="verdana" fill="black" font-size="16">plazmide25</text>
<text x="420" y="72" font-weight = "10" font-family="verdana" fill="black" font-size="16">test34</text>
<text x="486" y="46" font-weight = "10" font-family="verdana" fill="black" font-size="16">plazmide29</text>
<text x="486" y="21" font-weight = "10" font-family="verdana" fill="black" font-size="16">test35</text>
</g></svg>