<?xml version="1.0" encoding="iso-8859-1"?>
<!DOCTYPE svg PUBLIC "-//W3C//DTD SVG 1.0//EN" "http://www.w3.org/TR/2001/REC-SVG-20010904/DTD/svg10.dtd">
<svg width="1575" height="949" xmlns="http://www.w3.org/2000/svg" xmlns:xlink="http://www.w3.org/1999/xlink">
<g style="stroke:black;fill:lightgreen" transform="translate(30,30)">
<line x1="1014" y1="507" x2="1014" y2="523" style="stroke:blue; stroke-width:1"/>
<line x1="1014" y1="523" x2="1296" y2="523" style="stroke:blue; stroke-width:1"/>
<line x1="1014" y1="507" x2="1014" y2="491" style="stroke:blue; stroke-width:1"/>
<line x1="1014" y1="491" x2="1409" y2="491" style="stroke:blue; stroke-width:1"/>
<line x1="1000" y1="531" x2="1000" y2="555" style="stroke:blue; stroke-width:1"/>
<line x1="1000" y1="555" x2="1265" y2="555" style="stroke:blue; stroke-width:1"/>
<line x1="442" y1="558" x2="442" y2="586" style="stroke:blue; stroke-width:1"/>
<line x1="442" y1="586" x2="570" y2="586" style="stroke:blue; stroke-width:1"/>
<line x1="334" y1="588" x2="334" y2="618" style="stroke:blue; stroke-width:1"/>
<line x1="334" y1="618" x2="451" y2="618" style="stroke:blue; stroke-width:1"/>
<line x1="273" y1="619" x2="273" y2="650" style="stroke:blue; stroke-width:1"/>
<line x1="273" y1="650" x2="383" y2="650" style="stroke:blue; stroke-width:1"/>
<line x1="224" y1="650" x2="224" y2="681" style="stroke:blue; stroke-width:1"/>
<line x1="224" y1="681" x2="323" y2="681" style="stroke:blue; stroke-width:1"/>
<line x1="147" y1="681" x2="147" y2="713" style="stroke:blue; stroke-width:1"/>
<line x1="147" y1="713" x2="230" y2="713" style="stroke:blue; stroke-width:1"/>
<line x1="84" y1="713" x2="84" y2="745" style="stroke:blue; stroke-width:1"/>
<line x1="84" y1="745" x2="160" y2="745" style="stroke:blue; stroke-width:1"/>
<line x1="64" y1="745" x2="64" y2="776" style="stroke:blue; stroke-width:1"/>
<line x1="64" y1="776" x2="136" y2="776" style="stroke:blue; stroke-width:1"/>
<line x1="61" y1="776" x2="61" y2="808" style="stroke:blue; stroke-width:1"/>
<line x1="61" y1="808" x2="137" y2="808" style="stroke:blue; stroke-width:1"/>
<line x1="26" y1="808" x2="26" y2="840" style="stroke:blue; stroke-width:1"/>
<line x1="26" y1="840" x2="89" y2="840" style="stroke:blue; stroke-width:1"/>
<line x1="22" y1="887" x2="22" y2="903" style="stroke:blue; stroke-width:1"/>
<line x1="22" y1="903" x2="83" y2="903" style="stroke:blue; stroke-width:1"/>
<line x1="22" y1="887" x2="22" y2="871" style="stroke:blue; stroke-width:1"/>
<line x1="22" y1="871" x2="76" y2="871" style="stroke:blue; stroke-width:1"/>
<line x1="93" y1="285" x2="93" y2="301" style="stroke:blue; stroke-width:1"/>
<line x1="93" y1="301" x2="135" y2="301" style="stroke:blue; stroke-width:1"/>
<line x1="93" y1="285" x2="93" y2="269" style="stroke:blue; stroke-width:1"/>
<line x1="93" y1="269" x2="134" y2="269" style="stroke:blue; stroke-width:1"/>
<line x1="112" y1="32" x2="112" y2="48" style="stroke:blue; stroke-width:1"/>
<line x1="112" y1="48" x2="144" y2="48" style="stroke:blue; stroke-width:1"/>
<line x1="112" y1="32" x2="112" y2="16" style="stroke:blue; stroke-width:1"/>
<line x1="112" y1="16" x2="145" y2="16" style="stroke:blue; stroke-width:1"/>
<line x1="104" y1="56" x2="104" y2="79" style="stroke:blue; stroke-width:1"/>
<line x1="104" y1="79" x2="143" y2="79" style="stroke:blue; stroke-width:1"/>
<line x1="101" y1="127" x2="101" y2="143" style="stroke:blue; stroke-width:1"/>
<line x1="101" y1="143" x2="140" y2="143" style="stroke:blue; stroke-width:1"/>
<line x1="101" y1="127" x2="101" y2="111" style="stroke:blue; stroke-width:1"/>
<line x1="101" y1="111" x2="142" y2="111" style="stroke:blue; stroke-width:1"/>
<line x1="108" y1="190" x2="108" y2="206" style="stroke:blue; stroke-width:1"/>
<line x1="108" y1="206" x2="143" y2="206" style="stroke:blue; stroke-width:1"/>
<line x1="108" y1="190" x2="108" y2="174" style="stroke:blue; stroke-width:1"/>
<line x1="108" y1="174" x2="146" y2="174" style="stroke:blue; stroke-width:1"/>
<line x1="97" y1="189" x2="97" y2="238" style="stroke:blue; stroke-width:1"/>
<line x1="97" y1="238" x2="140" y2="238" style="stroke:blue; stroke-width:1"/>
<line x1="85" y1="285" x2="85" y2="333" style="stroke:blue; stroke-width:1"/>
<line x1="85" y1="333" x2="129" y2="333" style="stroke:blue; stroke-width:1"/>
<line x1="85" y1="325" x2="85" y2="364" style="stroke:blue; stroke-width:1"/>
<line x1="85" y1="364" x2="129" y2="364" style="stroke:blue; stroke-width:1"/>
<line x1="52" y1="360" x2="52" y2="396" style="stroke:blue; stroke-width:1"/>
<line x1="52" y1="396" x2="101" y2="396" style="stroke:blue; stroke-width:1"/>
<line x1="52" y1="394" x2="52" y2="428" style="stroke:blue; stroke-width:1"/>
<line x1="52" y1="428" x2="103" y2="428" style="stroke:blue; stroke-width:1"/>
<line x1="22" y1="427" x2="22" y2="459" style="stroke:blue; stroke-width:1"/>
<line x1="22" y1="459" x2="82" y2="459" style="stroke:blue; stroke-width:1"/>
<line x1="1000" y1="531" x2="1000" y2="507" style="stroke:blue; stroke-width:1"/>
<line x1="1000" y1="507" x2="1014" y2="507" style="stroke:blue; stroke-width:1"/>
<line x1="442" y1="558" x2="442" y2="531" style="stroke:blue; stroke-width:1"/>
<line x1="442" y1="531" x2="1000" y2="531" style="stroke:blue; stroke-width:1"/>
<line x1="334" y1="588" x2="334" y2="558" style="stroke:blue; stroke-width:1"/>
<line x1="334" y1="558" x2="442" y2="558" style="stroke:blue; stroke-width:1"/>
<line x1="273" y1="619" x2="273" y2="588" style="stroke:blue; stroke-width:1"/>
<line x1="273" y1="588" x2="334" y2="588" style="stroke:blue; stroke-width:1"/>
<line x1="224" y1="650" x2="224" y2="619" style="stroke:blue; stroke-width:1"/>
<line x1="224" y1="619" x2="273" y2="619" style="stroke:blue; stroke-width:1"/>
<line x1="147" y1="681" x2="147" y2="650" style="stroke:blue; stroke-width:1"/>
<line x1="147" y1="650" x2="224" y2="650" style="stroke:blue; stroke-width:1"/>
<line x1="84" y1="713" x2="84" y2="681" style="stroke:blue; stroke-width:1"/>
<line x1="84" y1="681" x2="147" y2="681" style="stroke:blue; stroke-width:1"/>
<line x1="64" y1="745" x2="64" y2="713" style="stroke:blue; stroke-width:1"/>
<line x1="64" y1="713" x2="84" y2="713" style="stroke:blue; stroke-width:1"/>
<line x1="61" y1="776" x2="61" y2="745" style="stroke:blue; stroke-width:1"/>
<line x1="61" y1="745" x2="64" y2="745" style="stroke:blue; stroke-width:1"/>
<line x1="26" y1="808" x2="26" y2="776" style="stroke:blue; stroke-width:1"/>
<line x1="26" y1="776" x2="61" y2="776" style="stroke:blue; stroke-width:1"/>
<line x1="16" y1="808" x2="16" y2="808" style="stroke:blue; stroke-width:1"/>
<line x1="16" y1="808" x2="26" y2="808" style="stroke:blue; stroke-width:1"/>
<line x1="16" y1="808" x2="16" y2="887" style="stroke:blue; stroke-width:1"/>
<line x1="16" y1="887" x2="22" y2="887" style="stroke:blue; stroke-width:1"/>
<line x1="90" y1="237" x2="90" y2="285" style="stroke:blue; stroke-width:1"/>
<line x1="90" y1="285" x2="93" y2="285" style="stroke:blue; stroke-width:1"/>
<line x1="104" y1="56" x2="104" y2="32" style="stroke:blue; stroke-width:1"/>
<line x1="104" y1="32" x2="112" y2="32" style="stroke:blue; stroke-width:1"/>
<line x1="101" y1="91" x2="101" y2="56" style="stroke:blue; stroke-width:1"/>
<line x1="101" y1="56" x2="104" y2="56" style="stroke:blue; stroke-width:1"/>
<line x1="101" y1="91" x2="101" y2="127" style="stroke:blue; stroke-width:1"/>
<line x1="101" y1="127" x2="101" y2="127" style="stroke:blue; stroke-width:1"/>
<line x1="97" y1="141" x2="97" y2="91" style="stroke:blue; stroke-width:1"/>
<line x1="97" y1="91" x2="101" y2="91" style="stroke:blue; stroke-width:1"/>
<line x1="97" y1="141" x2="97" y2="190" style="stroke:blue; stroke-width:1"/>
<line x1="97" y1="190" x2="108" y2="190" style="stroke:blue; stroke-width:1"/>
<line x1="97" y1="189" x2="97" y2="141" style="stroke:blue; stroke-width:1"/>
<line x1="97" y1="141" x2="97" y2="141" style="stroke:blue; stroke-width:1"/>
<line x1="90" y1="237" x2="90" y2="189" style="stroke:blue; stroke-width:1"/>
<line x1="90" y1="189" x2="97" y2="189" style="stroke:blue; stroke-width:1"/>
<line x1="85" y1="285" x2="85" y2="237" style="stroke:blue; stroke-width:1"/>
<line x1="85" y1="237" x2="90" y2="237" style="stroke:blue; stroke-width:1"/>
<line x1="85" y1="325" x2="85" y2="285" style="stroke:blue; stroke-width:1"/>
<line x1="85" y1="285" x2="85" y2="285" style="stroke:blue; stroke-width:1"/>
<line x1="52" y1="360" x2="52" y2="325" style="stroke:blue; stroke-width:1"/>
<line x1="52" y1="325" x2="85" y2="325" style="stroke:blue; stroke-width:1"/>
<line x1="52" y1="394" x2="52" y2="360" style="stroke:blue; stroke-width:1"/>
<line x1="52" y1="360" x2="52" y2="360" style="stroke:blue; stroke-width:1"/>
<line x1="22" y1="427" x2="22" y2="394" style="stroke:blue; stroke-width:1"/>
<line x1="22" y1="394" x2="52" y2="394" style="stroke:blue; stroke-width:1"/>
<line x1="16" y1="808" x2="16" y2="427" style="stroke:blue; stroke-width:1"/>
<line x1="16" y1="427" x2="22" y2="427" style="stroke:blue; stroke-width:1"/>
<text x="87" y="908" font-weight = "10" font-family="verdana" fill="black" font-size="16">orf12</text>
<text x="80" y="876" font-weight = "10" font-family="verdana" fill="black" font-size="16">orf28</text>
<text x="93" y="845" font-weight = "10" font-family="verdana" fill="black" font-size="16">orf4</text>
<text x="141" y="813" font-weight = "10" font-family="verdana" fill="black" font-size="16">orf16</text>
<text x="140" y="781" font-weight = "10" font-family="verdana" fill="black" font-size="16">orf14</text>
<text x="164" y="750" font-weight = "10" font-family="verdana" fill="black" font-size="16">orf10</text>
<text x="234" y="718" font-weight = "10" font-family="verdana" fill="black" font-size="16">orf5</text>
<text x="327" y="686" font-weight = "10" font-family="verdana" fill="black" font-size="16">orf1</text>
<text x="387" y="655" font-weight = "10" font-family="verdana" fill="black" font-size="16">orf22</text>
<text x="455" y="623" font-weight = "10" font-family="verdana" fill="black" font-size="16">orf2</text>
<text x="574" y="591" font-weight = "10" font-family="verdana" fill="black" font-size="16">orf11</text>
<text x="1269" y="560" font-weight = "10" font-family="verdana" fill="black" font-size="16">orf26</text>
<text x="1300" y="528" font-weight = "10" font-family="verdana" fill="black" font-size="16">orf8</text>
<text x="1413" y="496" font-weight = "10" font-family="verdana" fill="black" font-size="16">orf9</text>
<text x="86" y="464" font-weight = "10" font-family="verdana" fill="black" font-size="16">orf6</text>
<text x="107" y="433" font-weight = "10" font-family="verdana" fill="black" font-size="16">orf17</text>
<text x="105" y="401" font-weight = "10" font-family="verdana" fill="black" font-size="16">orf7</text>
<text x="133" y="369" font-weight = "10" font-family="verdana" fill="black" font-size="16">orf3</text>
<text x="133" y="338" font-weight = "10" font-family="verdana" fill="black" font-size="16">orf21</text>
<text x="139" y="306" font-weight = "10" font-family="verdana" fill="black" font-size="16">orf19</text>
<text x="138" y="274" font-weight = "10" font-family="verdana" fill="black" font-size="16">orf27</text>
<text x="144" y="243" font-weight = "10" font-family="verdana" fill="black" font-size="16">orf20</text>
<text x="147" y="211" font-weight = "10" font-family="verdana" fill="black" font-size="16">orf24</text>
<text x="150" y="179" font-weight = "10" font-family="verdana" fill="black" font-size="16">orf29</text>
<text x="144" y="148" font-weight = "10" font-family="verdana" fill="black" font-size="16">orf13</text>
<text x="146" y="116" font-weight = "10" font-family="verdana" fill="black" font-size="16">orf18</text>
<text x="147" y="84" font-weight = "10" font-family="verdana" fill="black" font-size="16">orf15</text>
<text x="148" y="53" font-weight = "10" font-family="verdana" fill="black" font-size="16">orf23</text>
<text x="149" y="21" font-weight = "10" font-family="verdana" fill="black" font-size="16">orf25</text>
</g></svg>