<?xml version="1.0" encoding="iso-8859-1"?>
<!DOCTYPE svg PUBLIC "-//W3C//DTD SVG 1.0//EN" "http://www.w3.org/TR/2001/REC-SVG-20010904/DTD/svg10.dtd">
<svg width="1575" height="949" xmlns="http://www.w3.org/2000/svg" xmlns:xlink="http://www.w3.org/1999/xlink">
<g style="stroke:black;fill:lightgreen" transform="translate(30,30)">
<line x1="1409" y1="525" x2="1409" y2="538" style="stroke:blue; stroke-width:1"/>
<line x1="1409" y1="538" x2="1409" y2="538" style="stroke:blue; stroke-width:1"/>
<line x1="1409" y1="525" x2="1409" y2="512" style="stroke:blue; stroke-width:1"/>
<line x1="1409" y1="512" x2="1409" y2="512" style="stroke:blue; stroke-width:1"/>
<line x1="1025" y1="544" x2="1025" y2="564" style="stroke:blue; stroke-width:1"/>
<line x1="1025" y1="564" x2="1389" y2="564" style="stroke:blue; stroke-width:1"/>
<line x1="1008" y1="567" x2="1008" y2="590" style="stroke:blue; stroke-width:1"/>
<line x1="1008" y1="590" x2="1254" y2="590" style="stroke:blue; stroke-width:1"/>
<line x1="666" y1="629" x2="666" y2="642" style="stroke:blue; stroke-width:1"/>
<line x1="666" y1="642" x2="666" y2="642" style="stroke:blue; stroke-width:1"/>
<line x1="666" y1="629" x2="666" y2="616" style="stroke:blue; stroke-width:1"/>
<line x1="666" y1="616" x2="666" y2="616" style="stroke:blue; stroke-width:1"/>
<line x1="350" y1="633" x2="350" y2="668" style="stroke:blue; stroke-width:1"/>
<line x1="350" y1="668" x2="452" y2="668" style="stroke:blue; stroke-width:1"/>
<line x1="287" y1="664" x2="287" y2="694" style="stroke:blue; stroke-width:1"/>
<line x1="287" y1="694" x2="383" y2="694" style="stroke:blue; stroke-width:1"/>
<line x1="234" y1="692" x2="234" y2="720" style="stroke:blue; stroke-width:1"/>
<line x1="234" y1="720" x2="320" y2="720" style="stroke:blue; stroke-width:1"/>
<line x1="155" y1="719" x2="155" y2="746" style="stroke:blue; stroke-width:1"/>
<line x1="155" y1="746" x2="228" y2="746" style="stroke:blue; stroke-width:1"/>
<line x1="91" y1="746" x2="91" y2="773" style="stroke:blue; stroke-width:1"/>
<line x1="91" y1="773" x2="159" y2="773" style="stroke:blue; stroke-width:1"/>
<line x1="69" y1="772" x2="69" y2="799" style="stroke:blue; stroke-width:1"/>
<line x1="69" y1="799" x2="135" y2="799" style="stroke:blue; stroke-width:1"/>
<line x1="160" y1="838" x2="160" y2="851" style="stroke:blue; stroke-width:1"/>
<line x1="160" y1="851" x2="160" y2="851" style="stroke:blue; stroke-width:1"/>
<line x1="160" y1="838" x2="160" y2="825" style="stroke:blue; stroke-width:1"/>
<line x1="160" y1="825" x2="160" y2="825" style="stroke:blue; stroke-width:1"/>
<line x1="29" y1="841" x2="29" y2="877" style="stroke:blue; stroke-width:1"/>
<line x1="29" y1="877" x2="87" y2="877" style="stroke:blue; stroke-width:1"/>
<line x1="16" y1="841" x2="16" y2="903" style="stroke:blue; stroke-width:1"/>
<line x1="16" y1="903" x2="70" y2="903" style="stroke:blue; stroke-width:1"/>
<line x1="21" y1="473" x2="21" y2="486" style="stroke:blue; stroke-width:1"/>
<line x1="21" y1="486" x2="77" y2="486" style="stroke:blue; stroke-width:1"/>
<line x1="21" y1="473" x2="21" y2="459" style="stroke:blue; stroke-width:1"/>
<line x1="21" y1="459" x2="70" y2="459" style="stroke:blue; stroke-width:1"/>
<line x1="93" y1="316" x2="93" y2="329" style="stroke:blue; stroke-width:1"/>
<line x1="93" y1="329" x2="131" y2="329" style="stroke:blue; stroke-width:1"/>
<line x1="93" y1="316" x2="93" y2="303" style="stroke:blue; stroke-width:1"/>
<line x1="93" y1="303" x2="130" y2="303" style="stroke:blue; stroke-width:1"/>
<line x1="101" y1="133" x2="101" y2="146" style="stroke:blue; stroke-width:1"/>
<line x1="101" y1="146" x2="137" y2="146" style="stroke:blue; stroke-width:1"/>
<line x1="101" y1="133" x2="101" y2="120" style="stroke:blue; stroke-width:1"/>
<line x1="101" y1="120" x2="139" y2="120" style="stroke:blue; stroke-width:1"/>
<line x1="152" y1="29" x2="152" y2="42" style="stroke:blue; stroke-width:1"/>
<line x1="152" y1="42" x2="152" y2="42" style="stroke:blue; stroke-width:1"/>
<line x1="152" y1="29" x2="152" y2="16" style="stroke:blue; stroke-width:1"/>
<line x1="152" y1="16" x2="152" y2="16" style="stroke:blue; stroke-width:1"/>
<line x1="110" y1="49" x2="110" y2="68" style="stroke:blue; stroke-width:1"/>
<line x1="110" y1="68" x2="141" y2="68" style="stroke:blue; stroke-width:1"/>
<line x1="102" y1="71" x2="102" y2="94" style="stroke:blue; stroke-width:1"/>
<line x1="102" y1="94" x2="141" y2="94" style="stroke:blue; stroke-width:1"/>
<line x1="99" y1="137" x2="99" y2="173" style="stroke:blue; stroke-width:1"/>
<line x1="99" y1="173" x2="136" y2="173" style="stroke:blue; stroke-width:1"/>
<line x1="149" y1="264" x2="149" y2="277" style="stroke:blue; stroke-width:1"/>
<line x1="149" y1="277" x2="149" y2="277" style="stroke:blue; stroke-width:1"/>
<line x1="149" y1="264" x2="149" y2="251" style="stroke:blue; stroke-width:1"/>
<line x1="149" y1="251" x2="149" y2="251" style="stroke:blue; stroke-width:1"/>
<line x1="150" y1="212" x2="150" y2="225" style="stroke:blue; stroke-width:1"/>
<line x1="150" y1="225" x2="150" y2="225" style="stroke:blue; stroke-width:1"/>
<line x1="150" y1="212" x2="150" y2="199" style="stroke:blue; stroke-width:1"/>
<line x1="150" y1="199" x2="150" y2="199" style="stroke:blue; stroke-width:1"/>
<line x1="83" y1="303" x2="83" y2="355" style="stroke:blue; stroke-width:1"/>
<line x1="83" y1="355" x2="124" y2="355" style="stroke:blue; stroke-width:1"/>
<line x1="83" y1="342" x2="83" y2="381" style="stroke:blue; stroke-width:1"/>
<line x1="83" y1="381" x2="124" y2="381" style="stroke:blue; stroke-width:1"/>
<line x1="50" y1="375" x2="50" y2="407" style="stroke:blue; stroke-width:1"/>
<line x1="50" y1="407" x2="95" y2="407" style="stroke:blue; stroke-width:1"/>
<line x1="50" y1="404" x2="50" y2="433" style="stroke:blue; stroke-width:1"/>
<line x1="50" y1="433" x2="96" y2="433" style="stroke:blue; stroke-width:1"/>
<line x1="1025" y1="544" x2="1025" y2="525" style="stroke:blue; stroke-width:1"/>
<line x1="1025" y1="525" x2="1409" y2="525" style="stroke:blue; stroke-width:1"/>
<line x1="1008" y1="567" x2="1008" y2="544" style="stroke:blue; stroke-width:1"/>
<line x1="1008" y1="544" x2="1025" y2="544" style="stroke:blue; stroke-width:1"/>
<line x1="516" y1="598" x2="516" y2="567" style="stroke:blue; stroke-width:1"/>
<line x1="516" y1="567" x2="1008" y2="567" style="stroke:blue; stroke-width:1"/>
<line x1="516" y1="598" x2="516" y2="629" style="stroke:blue; stroke-width:1"/>
<line x1="516" y1="629" x2="666" y2="629" style="stroke:blue; stroke-width:1"/>
<line x1="350" y1="633" x2="350" y2="598" style="stroke:blue; stroke-width:1"/>
<line x1="350" y1="598" x2="516" y2="598" style="stroke:blue; stroke-width:1"/>
<line x1="287" y1="664" x2="287" y2="633" style="stroke:blue; stroke-width:1"/>
<line x1="287" y1="633" x2="350" y2="633" style="stroke:blue; stroke-width:1"/>
<line x1="234" y1="692" x2="234" y2="664" style="stroke:blue; stroke-width:1"/>
<line x1="234" y1="664" x2="287" y2="664" style="stroke:blue; stroke-width:1"/>
<line x1="155" y1="719" x2="155" y2="692" style="stroke:blue; stroke-width:1"/>
<line x1="155" y1="692" x2="234" y2="692" style="stroke:blue; stroke-width:1"/>
<line x1="91" y1="746" x2="91" y2="719" style="stroke:blue; stroke-width:1"/>
<line x1="91" y1="719" x2="155" y2="719" style="stroke:blue; stroke-width:1"/>
<line x1="69" y1="772" x2="69" y2="746" style="stroke:blue; stroke-width:1"/>
<line x1="69" y1="746" x2="91" y2="746" style="stroke:blue; stroke-width:1"/>
<line x1="65" y1="805" x2="65" y2="772" style="stroke:blue; stroke-width:1"/>
<line x1="65" y1="772" x2="69" y2="772" style="stroke:blue; stroke-width:1"/>
<line x1="65" y1="805" x2="65" y2="838" style="stroke:blue; stroke-width:1"/>
<line x1="65" y1="838" x2="160" y2="838" style="stroke:blue; stroke-width:1"/>
<line x1="29" y1="841" x2="29" y2="805" style="stroke:blue; stroke-width:1"/>
<line x1="29" y1="805" x2="65" y2="805" style="stroke:blue; stroke-width:1"/>
<line x1="16" y1="841" x2="16" y2="841" style="stroke:blue; stroke-width:1"/>
<line x1="16" y1="841" x2="29" y2="841" style="stroke:blue; stroke-width:1"/>
<line x1="16" y1="438" x2="16" y2="473" style="stroke:blue; stroke-width:1"/>
<line x1="16" y1="473" x2="21" y2="473" style="stroke:blue; stroke-width:1"/>
<line x1="88" y1="252" x2="88" y2="316" style="stroke:blue; stroke-width:1"/>
<line x1="88" y1="316" x2="93" y2="316" style="stroke:blue; stroke-width:1"/>
<line x1="101" y1="102" x2="101" y2="133" style="stroke:blue; stroke-width:1"/>
<line x1="101" y1="133" x2="101" y2="133" style="stroke:blue; stroke-width:1"/>
<line x1="110" y1="49" x2="110" y2="29" style="stroke:blue; stroke-width:1"/>
<line x1="110" y1="29" x2="152" y2="29" style="stroke:blue; stroke-width:1"/>
<line x1="102" y1="71" x2="102" y2="49" style="stroke:blue; stroke-width:1"/>
<line x1="102" y1="49" x2="110" y2="49" style="stroke:blue; stroke-width:1"/>
<line x1="101" y1="102" x2="101" y2="71" style="stroke:blue; stroke-width:1"/>
<line x1="101" y1="71" x2="102" y2="71" style="stroke:blue; stroke-width:1"/>
<line x1="99" y1="137" x2="99" y2="102" style="stroke:blue; stroke-width:1"/>
<line x1="99" y1="102" x2="101" y2="102" style="stroke:blue; stroke-width:1"/>
<line x1="92" y1="188" x2="92" y2="137" style="stroke:blue; stroke-width:1"/>
<line x1="92" y1="137" x2="99" y2="137" style="stroke:blue; stroke-width:1"/>
<line x1="105" y1="238" x2="105" y2="264" style="stroke:blue; stroke-width:1"/>
<line x1="105" y1="264" x2="149" y2="264" style="stroke:blue; stroke-width:1"/>
<line x1="105" y1="238" x2="105" y2="212" style="stroke:blue; stroke-width:1"/>
<line x1="105" y1="212" x2="150" y2="212" style="stroke:blue; stroke-width:1"/>
<line x1="92" y1="188" x2="92" y2="238" style="stroke:blue; stroke-width:1"/>
<line x1="92" y1="238" x2="105" y2="238" style="stroke:blue; stroke-width:1"/>
<line x1="88" y1="252" x2="88" y2="188" style="stroke:blue; stroke-width:1"/>
<line x1="88" y1="188" x2="92" y2="188" style="stroke:blue; stroke-width:1"/>
<line x1="83" y1="303" x2="83" y2="252" style="stroke:blue; stroke-width:1"/>
<line x1="83" y1="252" x2="88" y2="252" style="stroke:blue; stroke-width:1"/>
<line x1="83" y1="342" x2="83" y2="303" style="stroke:blue; stroke-width:1"/>
<line x1="83" y1="303" x2="83" y2="303" style="stroke:blue; stroke-width:1"/>
<line x1="50" y1="375" x2="50" y2="342" style="stroke:blue; stroke-width:1"/>
<line x1="50" y1="342" x2="83" y2="342" style="stroke:blue; stroke-width:1"/>
<line x1="50" y1="404" x2="50" y2="375" style="stroke:blue; stroke-width:1"/>
<line x1="50" y1="375" x2="50" y2="375" style="stroke:blue; stroke-width:1"/>
<line x1="16" y1="438" x2="16" y2="404" style="stroke:blue; stroke-width:1"/>
<line x1="16" y1="404" x2="50" y2="404" style="stroke:blue; stroke-width:1"/>
<line x1="16" y1="841" x2="16" y2="438" style="stroke:blue; stroke-width:1"/>
<line x1="16" y1="438" x2="16" y2="438" style="stroke:blue; stroke-width:1"/>
<text x="74" y="908" font-weight = "10" font-family="verdana" fill="black" font-size="16">orf6</text>
<text x="91" y="882" font-weight = "10" font-family="verdana" fill="black" font-size="16">orf4</text>
<text x="164" y="856" font-weight = "10" font-family="verdana" fill="black" font-size="16">orf16</text>
<text x="164" y="830" font-weight = "10" font-family="verdana" fill="black" font-size="16">orf32</text>
<text x="139" y="804" font-weight = "10" font-family="verdana" fill="black" font-size="16">orf14</text>
<text x="163" y="778" font-weight = "10" font-family="verdana" fill="black" font-size="16">orf10</text>
<text x="232" y="751" font-weight = "10" font-family="verdana" fill="black" font-size="16">orf5</text>
<text x="324" y="725" font-weight = "10" font-family="verdana" fill="black" font-size="16">orf1</text>
<text x="387" y="699" font-weight = "10" font-family="verdana" fill="black" font-size="16">orf22</text>
<text x="456" y="673" font-weight = "10" font-family="verdana" fill="black" font-size="16">orf2</text>
<text x="670" y="647" font-weight = "10" font-family="verdana" fill="black" font-size="16">orf11</text>
<text x="670" y="621" font-weight = "10" font-family="verdana" fill="black" font-size="16">orf31</text>
<text x="1258" y="595" font-weight = "10" font-family="verdana" fill="black" font-size="16">orf26</text>
<text x="1393" y="569" font-weight = "10" font-family="verdana" fill="black" font-size="16">orf9</text>
<text x="1413" y="543" font-weight = "10" font-family="verdana" fill="black" font-size="16">orf8</text>
<text x="1413" y="517" font-weight = "10" font-family="verdana" fill="black" font-size="16">orf30</text>
<text x="81" y="491" font-weight = "10" font-family="verdana" fill="black" font-size="16">orf12</text>
<text x="74" y="464" font-weight = "10" font-family="verdana" fill="black" font-size="16">orf28</text>
<text x="100" y="438" font-weight = "10" font-family="verdana" fill="black" font-size="16">orf17</text>
<text x="99" y="412" font-weight = "10" font-family="verdana" fill="black" font-size="16">orf7</text>
<text x="128" y="386" font-weight = "10" font-family="verdana" fill="black" font-size="16">orf3</text>
<text x="128" y="360" font-weight = "10" font-family="verdana" fill="black" font-size="16">orf21</text>
<text x="135" y="334" font-weight = "10" font-family="verdana" fill="black" font-size="16">orf19</text>
<text x="134" y="308" font-weight = "10" font-family="verdana" fill="black" font-size="16">orf27</text>
<text x="153" y="282" font-weight = "10" font-family="verdana" fill="black" font-size="16">orf24</text>
<text x="153" y="256" font-weight = "10" font-family="verdana" fill="black" font-size="16">orf33</text>
<text x="154" y="230" font-weight = "10" font-family="verdana" fill="black" font-size="16">orf29</text>
<text x="154" y="204" font-weight = "10" font-family="verdana" fill="black" font-size="16">orf35</text>
<text x="140" y="178" font-weight = "10" font-family="verdana" fill="black" font-size="16">orf20</text>
<text x="141" y="151" font-weight = "10" font-family="verdana" fill="black" font-size="16">orf13</text>
<text x="143" y="125" font-weight = "10" font-family="verdana" fill="black" font-size="16">orf18</text>
<text x="145" y="99" font-weight = "10" font-family="verdana" fill="black" font-size="16">orf15</text>
<text x="145" y="73" font-weight = "10" font-family="verdana" fill="black" font-size="16">orf23</text>
<text x="156" y="47" font-weight = "10" font-family="verdana" fill="black" font-size="16">orf25</text>
<text x="156" y="21" font-weight = "10" font-family="verdana" fill="black" font-size="16">orf34</text>
</g></svg>